<svg width="148" height="22" viewBox="0 0 148 22" fill="none" xmlns="http://www.w3.org/2000/svg">
<path d="M13.5745 20.9001V1.53347H11.1161V9.8668H2.69192V1.53347H0.233521V20.9001H2.69192V12.1335H11.1488V20.9001H13.5745ZM28.1938 11.0335C28.1938 8.00013 26.8826 6.43346 22.8836 6.43346C21.3758 6.43346 19.6057 6.6668 18.3274 7.0668L18.5568 9.03346C19.6713 8.80013 21.4086 8.5668 22.7197 8.5668C24.9814 8.5668 25.7354 9.20013 25.7354 10.9668V13.1668H22.0641C19.2452 13.1668 17.8029 14.2335 17.8029 17.1668C17.8029 19.6668 18.9174 21.2335 21.5069 21.2335C23.1786 21.2335 24.7848 20.7668 26.0304 19.9001L26.1943 20.9668H28.2265L28.1938 11.0335ZM25.7681 17.9668C24.6864 18.6668 23.3753 19.1335 22.1625 19.1335C20.458 19.1335 20.1958 18.5335 20.1958 17.1001C20.1958 15.6668 20.753 15.2001 22.228 15.2001H25.7681V17.9668ZM43.2064 20.9001V10.0335C43.2064 7.8668 42.4197 6.43346 40.1908 6.43346C38.5846 6.43346 36.3557 7.13346 34.8151 7.93346V0.633464L32.4222 0.966797V20.9335H34.8151V10.2668C36.3229 9.50012 38.4535 8.80013 39.4696 8.80013C40.3547 8.80013 40.8136 9.16679 40.8136 10.1001V20.9335H43.2064V20.9001ZM58.4485 20.9001V10.0335C58.4485 7.8668 57.6618 6.43346 55.4329 6.43346C53.7939 6.43346 51.3683 7.16679 49.8277 7.96679L49.5983 6.76679H47.6315V20.9335H50.0244V10.2335C51.5322 9.4668 53.6628 8.80013 54.679 8.80013C55.564 8.80013 56.0229 9.16679 56.0229 10.1001V20.9335H58.4485V20.9001ZM64.5781 15.9668V14.8001H72.8711V11.8335C72.8711 8.90013 71.7567 6.46679 67.6265 6.46679C63.4964 6.46679 62.1853 8.83346 62.1853 11.7668V16.0001C62.1853 19.2001 63.5948 21.2001 67.6921 21.2001C69.4294 21.2001 71.2978 20.9001 72.6089 20.4001L72.3139 18.4335C70.7733 18.8335 69.2982 19.1001 67.9215 19.1001C65.2009 19.1001 64.5781 18.2001 64.5781 15.9668ZM64.5781 11.5668C64.5781 9.5668 65.3648 8.50013 67.6265 8.50013C69.8883 8.50013 70.5438 9.63347 70.5438 11.5668V12.7335H64.5781V11.5668ZM95.8818 20.9001V10.0335C95.8818 7.8668 95.0951 6.43346 92.8661 6.43346C91.1289 6.43346 88.7688 7.13346 87.0971 7.96679C86.7037 7.00013 85.8843 6.43346 84.442 6.43346C82.8031 6.43346 80.3775 7.16679 78.8369 7.96679L78.6074 6.76679H76.6407V20.9335H79.0335V10.2335C80.5414 9.4668 82.672 8.80013 83.6881 8.80013C84.5731 8.80013 85.032 9.16679 85.032 10.1001V20.9335H87.4249V10.2335C88.9327 9.4668 90.9322 8.80013 92.0794 8.80013C92.9645 8.80013 93.4234 9.16679 93.4234 10.1001V20.9335H95.8818V20.9001ZM100.176 6.76679V17.6335C100.176 19.8001 100.962 21.2335 103.191 21.2335C104.83 21.2335 107.256 20.5001 108.797 19.7001L109.026 20.9001H110.993V6.73347H108.6V17.4335C107.092 18.2001 104.961 18.8668 103.945 18.8668C103.06 18.8668 102.601 18.5001 102.601 17.5668V6.73347L100.176 6.76679ZM102.11 4.60013H104.339V2.1668H102.11V4.60013ZM107.059 4.60013H109.288V2.1668H107.059V4.60013ZM126.366 20.9001V10.0335C126.366 7.8668 125.579 6.43346 123.35 6.43346C121.744 6.43346 119.515 7.13346 117.975 7.93346V0.633464L115.582 0.966797V20.9335H117.975V10.2668C119.482 9.50012 121.613 8.80013 122.629 8.80013C123.514 8.80013 123.973 9.16679 123.973 10.1001V20.9335H126.366V20.9001ZM133.217 20.9001V0.600128L130.824 0.933461V20.9001H133.217ZM139.445 15.9668V14.8001H147.738V11.8335C147.738 8.90013 146.623 6.46679 142.493 6.46679C138.363 6.46679 137.052 8.83346 137.052 11.7668V16.0001C137.052 19.2001 138.461 21.2001 142.559 21.2001C144.296 21.2001 146.164 20.9001 147.475 20.4001L147.18 18.4335C145.64 18.8335 144.165 19.1001 142.788 19.1001C140.067 19.1001 139.445 18.2001 139.445 15.9668ZM139.445 11.5668C139.445 9.5668 140.231 8.50013 142.493 8.50013C144.755 8.50013 145.41 9.63347 145.41 11.5668V12.7335H139.445V11.5668Z" fill="#6F7072"/>
</svg>
